<?xml version="1.0" standalone="no"?><!DOCTYPE svg PUBLIC "-//W3C//DTD SVG 1.1//EN" "http://www.w3.org/Graphics/SVG/1.1/DTD/svg11.dtd"><svg t="1624596287821" class="icon" viewBox="0 0 1024 1024" version="1.1" xmlns="http://www.w3.org/2000/svg" p-id="4238" width="32" height="32" xmlns:xlink="http://www.w3.org/1999/xlink"><defs><style type="text/css"></style></defs><path d="M512.002662 384a96 96 0 1 0 96.01024 96.01024A96.114688 96.114688 0 0 0 512.002662 384z m0 128a32 32 0 1 1 31.98976-31.98976A32.008192 32.008192 0 0 1 512.002662 512z m432.00512 96.01024a79.007744 79.007744 0 0 0-12.53376 1.24928 1291.780096 1291.780096 0 0 0-105.73824-129.24928C949.537382 345.798656 1024.002662 219.561984 1024.002662 135.968768c-0.04096-40.998912-17.63328-64.841728-32.37888-77.656064-59.45344-51.580928-182.35392-21.266432-319.93856 51.156992C628.165222 40.845312 572.951142 0 512.002662 0s-116.16256 40.845312-159.68256 109.469696C214.735462 37.046272 91.834982 6.74816 32.381542 58.312704 17.635942 71.12704 0.043622 94.971904 0.002662 135.968768c0 83.593216 74.46528 209.829888 198.26688 344.041472a1291.780096 1291.780096 0 0 0-105.73824 129.24928 79.007744 79.007744 0 0 0-12.53376-1.24928 79.589376 79.589376 0 0 0-60.80512 131.42016C6.863462 770.70336 0.002662 799.31392 0.002662 824.03328c0.04096 41.00096 17.63328 64.83968 32.37888 77.66016 20.43904 17.7152 48.37376 25.74336 81.8176 25.74336 57.32352 0 130.99008-23.94112 210.80064-63.1808 46.3872 98.65216 112.39424 159.744 187.00288 159.744s140.61568-61.09184 187.00288-159.744c79.81056 39.23968 153.47712 63.1808 210.80064 63.1808 33.44384 0 61.37856-8.02816 81.8176-25.74336 14.7456-12.82048 32.33792-36.6592 32.37888-77.66016 0-24.71936-6.8608-53.32992-19.18976-84.60288a79.589376 79.589376 0 0 0-60.80512-131.42016zM909.273702 95.657984c18.28864 0 32.01024 3.71712 40.40704 11.030528 2.58048 2.185216 10.32192 8.904704 10.32192 29.2864 0 57.7024-61.07136 168.704-178.81088 297.515008-5.75488-5.781504-11.73504-11.59168-17.67424-17.408-8.78592-96.344064-30.69952-182.185984-61.952-250.701824 89.74336-47.067136 162.6112-69.722112 207.70816-69.722112zM391.907942 578.06848q-38.15424-33.08544-71.8848-65.57696a2.576384 2.576384 0 0 0-0.02048-0.32768c0-23.1424 1.024-45.2608 2.47808-66.9696a1931.30496 1931.30496 0 0 1 69.4272-63.258624c41.02144-35.545088 81.2032-67.528704 120.09472-96.233472 38.89152 28.704768 79.07328 60.688384 120.09472 96.233472a1933.225984 1933.225984 0 0 1 69.4272 63.258624c1.45408 21.7088 2.47808 43.8272 2.47808 66.80576 0 0-0.02048 0.3072-0.02048 0.49152q-33.82272 32.44032-71.8848 65.57696c-41.0624 35.59424-81.16224 67.2768-120.09472 96.01024-38.95296-28.73344-79.03232-60.416-120.09472-96.01024z m65.31072 134.84032c-34.32448 23.30624-67.3792 43.99104-98.67264 61.78816-16.15872-49.37728-28.2624-106.96704-34.26304-171.08992 8.4992 7.61856 16.91648 15.23712 25.68192 22.8352 34.48832 29.88032 70.53312 58.90048 107.25376 86.46656z m-122.92096-365.42464c10.3424-57.73312 25.68192-108.529664 44.29824-150.562816q38.03136 22.528 78.86848 50.204672c-36.78208 27.594752-72.97024 56.5248-107.49952 86.4256-5.3248 4.636672-10.40384 9.293824-15.6672 13.932544z m232.2432-100.352q40.79616-27.727872 78.86848-50.204672c18.61632 42.033152 33.95584 92.829696 44.29824 150.562816-5.26336-4.63872-10.3424-9.295872-15.6672-13.9264-34.52928-29.92128-70.71744-58.843136-107.49952-86.437888z m107.49952 379.316224c8.76544-7.59808 17.18272-15.21664 25.68192-22.8352-6.00064 64.14336-18.10432 121.73312-34.26304 171.1104-31.31392-17.79712-64.34816-38.46144-98.69312-61.80864a1961.85088 1961.85088 0 0 0 107.27424-86.472704zM512.002662 64c35.16416 0 71.82336 27.8528 103.60832 76.969984-34.304 20.248576-69.0176 42.7008-103.60832 66.7648-34.57024-24.076288-69.30432-46.516224-103.60832-66.7648C440.199782 91.84256 476.838502 64 512.002662 64zM74.324582 106.688512c8.41728-7.313408 22.1184-11.030528 40.40704-11.030528 45.09696 0 117.9648 22.654976 207.70816 69.718016-31.25248 68.51584-53.16608 154.35776-61.952 250.701824-5.9392 5.814272-11.91936 11.624448-17.67424 17.408-117.73952-128.8192-178.81088-239.8208-178.81088-297.515008 0-20.3776 7.74144-27.097088 10.32192-29.282304z m0 746.631168c-2.58048-2.19136-10.32192-8.9088-10.32192-29.2864 0-15.2576 4.38272-34.32448 12.8-56.36096 1.08544 0.04096 2.10944 0.32768 3.19488 0.32768a79.906816 79.906816 0 0 0 66.80576-123.88352 1249.564672 1249.564672 0 0 1 96.01024-117.59616c4.52608 4.54656 9.23648 9.1136 13.88544 13.66016 2.58048 99.00032 18.39104 189.70624 44.38016 265.15456-115.13856 57.05728-199.29088 71.84384-226.75456 47.98464zM512.002662 960c-45.50656 0-93.5936-46.22336-130.27328-125.5424 42.84416-24.02304 86.71232-51.79392 130.27328-82.10432 43.56096 30.3104 87.42912 58.08128 130.27328 82.10432-36.67968 79.31904-84.76672 125.5424-130.27328 125.5424z m437.67808-106.68032c-27.5456 23.87968-111.67744 9.09312-226.75456-47.96416 25.98912-75.42784 41.79968-166.17472 44.38016-265.17504 4.64896-4.54656 9.35936-9.1136 13.88544-13.66016a1249.564672 1249.564672 0 0 1 96.01024 117.59616A79.906816 79.906816 0 0 0 944.007782 768c1.08544 0 2.10944-0.28672 3.19488-0.32768 8.41728 22.03648 12.8 41.10336 12.8 56.36096 0 20.3776-7.74144 27.09504-10.32192 29.2864z" p-id="4239" fill="#e6e6e6"></path></svg>